<svg width="130" height="29" viewBox="0 0 130 29" fill="none" xmlns="http://www.w3.org/2000/svg">
<mask id="mask0" mask-type="alpha" maskUnits="userSpaceOnUse" x="120" y="12" width="10" height="7">
<path fill-rule="evenodd" clip-rule="evenodd" d="M120.669 12.361H130V18.3948H120.669V12.361Z" fill="white"/>
</mask>
<g mask="url(#mask0)">
<path fill-rule="evenodd" clip-rule="evenodd" d="M129.677 17.0359C129.978 16.8165 130.084 16.4157 129.93 16.0761C129.483 15.0891 128.332 13.1173 126.087 12.5252C123.841 11.934 121.868 13.0813 120.993 13.7195C120.691 13.9399 120.585 14.3407 120.739 14.6803C121.186 15.6673 122.337 17.6391 124.583 18.2302C126.828 18.8224 128.801 17.6742 129.677 17.0359" fill="#45D0C1"/>
</g>
<mask id="mask1" mask-type="alpha" maskUnits="userSpaceOnUse" x="118" y="0" width="9" height="12">
<path fill-rule="evenodd" clip-rule="evenodd" d="M118.201 0H126.661V11.8676H118.201V0Z" fill="white"/>
</mask>
<g mask="url(#mask1)">
<path fill-rule="evenodd" clip-rule="evenodd" d="M125.164 0.455385C124.948 0.0856684 124.506 -0.0856636 124.098 0.041583C122.788 0.451377 119.724 1.59359 118.602 4.4882C117.48 7.38381 118.999 10.2273 119.69 11.4126C119.905 11.7823 120.347 11.9537 120.756 11.8254C122.066 11.4156 125.14 10.1802 126.262 7.28462C127.384 4.38901 125.855 1.64068 125.164 0.455385" fill="#45D0C1"/>
</g>
<path fill-rule="evenodd" clip-rule="evenodd" d="M25.6904 27.7031V7.96183C25.6904 7.74642 25.8648 7.57108 26.0812 7.57108H30.2022C30.4186 7.57108 30.5939 7.74642 30.5939 7.96183V10.3545C30.5939 10.3545 32.2101 6.69939 37.0144 7.29254C37.2508 7.32159 37.4282 7.52098 37.4282 7.75944V11.7462C37.4282 11.9916 37.2368 12.195 36.9923 12.2101C35.6598 12.2822 34.9313 12.5898 33.7761 13.1288C32.5638 13.6639 31.5879 14.6197 31.0268 15.8201V27.6951C31.0268 28.1059 30.6931 28.4395 30.2813 28.4395H26.4359C26.0281 28.4385 25.6964 28.1109 25.6904 27.7031" fill="#45D0C1"/>
<path fill-rule="evenodd" clip-rule="evenodd" d="M83.3267 27.7031V8.02295C83.3227 7.77848 83.5171 7.57609 83.7626 7.57108H83.7736H87.7854C88.0308 7.57108 88.2302 7.76946 88.2302 8.01494V10.3545C88.2302 10.3545 89.8494 6.69939 94.6537 7.29254C94.8901 7.32159 95.0675 7.52098 95.0675 7.75944V11.7462C95.0675 11.9916 94.8761 12.195 94.6316 12.2101C93.3021 12.2822 92.5706 12.5898 91.4154 13.1288C90.2051 13.6659 89.2282 14.6207 88.6661 15.8201V27.6951C88.6661 28.1059 88.3324 28.4395 87.9206 28.4395H84.0752C83.6654 28.4395 83.3327 28.1119 83.3267 27.7031" fill="#45D0C1"/>
<path fill-rule="evenodd" clip-rule="evenodd" d="M70.5796 23.6772C67.3514 23.6772 64.7353 21.0601 64.7353 17.8329C64.7353 14.6046 67.3514 11.9875 70.5796 11.9875C73.8079 11.9875 76.424 14.6046 76.424 17.8329C76.422 21.0581 73.8059 23.6722 70.5796 23.6722V23.6772ZM70.5794 6.80949C64.4946 6.80949 59.561 11.7421 59.561 17.8268C59.561 23.9116 64.4946 28.8442 70.5794 28.8442C76.6642 28.8442 81.5977 23.9116 81.5977 17.8268C81.5957 11.7421 76.6642 6.8105 70.5794 6.80949V6.80949Z" fill="#45D0C1"/>
<path fill-rule="evenodd" clip-rule="evenodd" d="M112.413 19.5725C112.163 19.5745 111.94 19.7298 111.851 19.9633C110.677 22.9701 107.287 24.456 104.281 23.2817C103.34 22.914 102.511 22.3098 101.873 21.5263L112.242 17.6698L116.529 15.9826C116.939 15.8273 117.162 15.3834 117.041 14.9616C115.437 9.09222 109.38 5.63352 103.509 7.23662C97.6388 8.84073 94.1811 14.8985 95.7842 20.7688C97.3873 26.6382 103.446 30.0969 109.316 28.4938C113.363 27.3877 116.431 24.0803 117.23 19.9603C117.264 19.7779 117.143 19.6016 116.96 19.5675C116.94 19.5635 116.92 19.5615 116.901 19.5615L112.413 19.5725ZM106.405 11.9818C108.272 11.9818 110.025 12.8756 111.123 14.3855L100.583 18.3051C100.583 18.1478 100.56 17.9895 100.56 17.8271C100.56 14.5989 103.177 11.9818 106.405 11.9818V11.9818Z" fill="#45D0C1"/>
<path fill-rule="evenodd" clip-rule="evenodd" d="M58.2266 7.72287C56.1546 8.21382 54.4112 9.60552 53.4754 11.5182C53.272 11.915 53.0997 12.3268 52.9584 12.7496L49.6891 22.3081L46.4297 12.7807C46.3035 12.4019 46.1522 12.0332 45.9769 11.6755C45.011 9.60051 43.1043 8.11864 40.8549 7.69181C40.2197 7.57158 39.5694 7.55555 38.9292 7.64372L46.4408 27.8489C46.573 28.2026 46.9077 28.439 47.2844 28.445H51.743C51.8202 28.445 51.8973 28.435 51.9715 28.414H52.0747C52.4534 28.409 52.7891 28.1715 52.9183 27.8158L60.4589 7.60765C59.7135 7.50845 58.957 7.54753 58.2266 7.72287" fill="#45D0C1"/>
<path fill-rule="evenodd" clip-rule="evenodd" d="M15.3164 3.69406L15.0579 3.01975C14.8154 2.28533 14.3916 1.98475 13.3986 1.98475H10.9589C10.0091 1.98475 9.46602 2.39254 9.17345 3.21914L8.14746 5.95945C10.0351 4.46856 12.3716 3.662 14.7763 3.67202C14.9767 3.67202 15.156 3.68504 15.3164 3.69406" fill="#45D0C1"/>
<mask id="mask2" mask-type="alpha" maskUnits="userSpaceOnUse" x="0" y="5" width="25" height="24">
<path fill-rule="evenodd" clip-rule="evenodd" d="M0 5.2932H24.2175V28.4395H0V5.2932Z" fill="white"/>
</mask>
<g mask="url(#mask2)">
<path fill-rule="evenodd" clip-rule="evenodd" d="M9.01601 18.1406L12.126 9.66613L15.0096 18.1406H9.01601ZM15.7832 5.35879C15.4495 5.3117 15.1129 5.28965 14.7772 5.29366C12.9297 5.29366 8.99102 5.85876 6.69958 10.3414C6.63245 10.4717 6.56732 10.607 6.5032 10.7422C6.47715 10.8023 6.4491 10.8554 6.42405 10.9156C6.33688 11.1069 6.25272 11.3043 6.17356 11.5107L0.0366681 27.5778C-0.0805591 27.9095 0.0927768 28.2722 0.421414 28.3894C0.48654 28.4125 0.555674 28.4245 0.623806 28.4255H5.28484C5.54935 28.4255 5.78481 28.2592 5.87598 28.0107L8.14739 21.7876H15.9465L18.268 28.0277C18.3592 28.2762 18.5956 28.4405 18.8591 28.4395H23.5933C23.941 28.4375 24.2205 28.152 24.2175 27.8023C24.2175 27.7301 24.2045 27.659 24.1805 27.5929L15.7832 5.35879Z" fill="#45D0C1"/>
</g>
</svg>
